# xmcd CD database file
# Copyright (C) 1993-1998 Ti Kan
#
# Track frame offsets:
# 150
# 14292
# 30901
# 48635
# 68703
# 87533
# 101037
# 115803
# 132797
# 145007
# 161350
#
# Disc length: 2395 seconds
# Revision: 0
# Processed by: cddbd v1.4b41PL1 Copyright (c) Steve Scherf et al.
# Submitted via: CDSpectrumPro v3.3.331
#
DISCID=8909590b
DTITLE=The Shoppe - The Miles We Travel
DYEAR=1900
DGENRE=
TTITLE0=Billy The Kid
TTITLE1=Too Much Fun
TTITLE2=Sleepwalk
TTITLE3=Europa
TTITLE4=Devil With The Blue Dress
TTITLE5=Limehouse Blues
TTITLE6=Funny How The Moon
TTITLE7=Can You Feel The Love?
TTITLE8=What's Forever For?
TTITLE9=Desperado
TTITLE10=The River
EXTD=
EXTT0=
EXTT1=
EXTT2=
EXTT3=
EXTT4=
EXTT5=
EXTT6=
EXTT7=
EXTT8=
EXTT9=
EXTT10=
PLAYORDER=
